<?xml version="1.0" standalone="no"?>
<!DOCTYPE svg PUBLIC "-//W3C//DTD SVG 20010904//EN"
 "http://www.w3.org/TR/2001/REC-SVG-20010904/DTD/svg10.dtd">
<svg version="1.0" xmlns="http://www.w3.org/2000/svg"
 width="298.000000pt" height="298.000000pt" viewBox="0 0 298.000000 298.000000"
 preserveAspectRatio="xMidYMid meet">
<metadata>
Created by potrace 1.14, written by Peter Selinger 2001-2017
</metadata>
<g transform="translate(0.000000,298.000000) scale(0.100000,-0.100000)"
fill="#000000" stroke="none">
<path d="M1280 2100 c-19 -5 -81 -8 -138 -7 -85 2 -102 0 -100 -13 2 -8 18
-19 36 -24 69 -20 67 3 67 -623 0 -310 4 -563 8 -563 4 0 27 10 50 22 23 12
60 27 82 33 35 11 43 10 67 -6 96 -68 269 -63 368 10 48 36 66 58 99 121 47
90 65 233 46 370 -19 145 -95 251 -202 285 -93 29 -215 -2 -265 -67 -13 -16
-30 -39 -38 -49 -13 -18 -15 8 -15 248 0 296 4 279 -65 263z m298 -466 c29
-19 59 -84 73 -161 12 -64 15 -275 5 -338 -23 -142 -76 -222 -153 -230 -51 -4
-102 8 -135 34 l-23 19 1 283 c0 239 3 289 16 314 20 37 65 81 98 94 31 12 87
5 118 -15z"/>
<path d="M17 1992 c-27 -5 -7 -32 24 -32 15 0 41 -11 56 -24 l28 -24 1 -449
c0 -247 -4 -464 -8 -482 -7 -24 -18 -36 -44 -47 -19 -8 -39 -12 -43 -9 -5 2
-14 -2 -21 -10 -7 -8 -11 -16 -9 -16 2 -1 106 -3 231 -4 182 -2 228 0 228 10
0 8 -17 16 -39 20 -74 12 -76 17 -79 285 l-3 239 33 -9 c18 -5 44 -23 58 -39
46 -54 274 -423 274 -444 1 -16 -8 -23 -36 -30 -21 -5 -38 -15 -38 -22 0 -9
47 -12 205 -12 174 0 205 2 203 14 -2 8 -16 22 -33 31 -44 25 -51 35 -245 324
-211 315 -204 303 -187 320 6 7 39 47 72 88 89 110 95 118 153 181 49 53 140
109 177 109 16 0 21 30 5 30 -5 0 -85 1 -177 1 -144 0 -168 -2 -171 -15 -3
-12 5 -16 28 -16 20 0 40 -9 56 -26 22 -21 25 -31 19 -62 -4 -20 -11 -44 -16
-54 -18 -33 -172 -223 -208 -256 -42 -39 -122 -82 -151 -82 -21 0 -21 2 -18
220 3 247 4 247 77 257 29 4 41 10 39 20 -2 12 -39 15 -214 16 -116 1 -218 1
-227 -1z"/>
<path d="M2184 1705 c-100 -30 -155 -91 -162 -179 -2 -30 1 -70 7 -89 16 -48
77 -115 164 -178 155 -115 202 -176 190 -252 -7 -42 -19 -64 -47 -82 -56 -37
-145 -24 -195 27 -40 41 -82 153 -84 226 0 6 -9 12 -19 12 -14 0 -18 -8 -18
-37 0 -21 -2 -91 -3 -155 -3 -108 -2 -118 15 -118 10 0 20 10 24 25 8 33 28
32 106 -5 50 -24 77 -30 127 -30 89 0 172 25 221 67 55 48 73 86 74 158 1 106
-42 162 -216 285 -147 105 -168 129 -168 200 0 35 5 52 23 68 45 43 105 48
172 16 51 -24 80 -76 121 -211 2 -7 10 -10 19 -7 22 9 23 274 0 274 -8 0 -15
-6 -15 -13 0 -7 -7 -22 -15 -34 l-15 -22 -66 31 c-76 35 -170 45 -240 23z"/>
<path d="M2804 1085 c-64 -27 -88 -101 -54 -164 39 -73 183 -64 215 13 42 101
-58 195 -161 151z"/>
</g>
</svg>
