<svg width="591" height="673" viewBox="0 0 591 673" fill="none" xmlns="http://www.w3.org/2000/svg">
<g clip-path="url(#clip0_97_6)">
<path d="M4.22494 321.887C6.39647 325.315 9.33676 328.251 12.8387 330.488C16.3406 332.726 20.319 334.211 24.4937 334.838C28.6683 335.465 32.9376 335.219 37.0009 334.118C41.0642 333.017 44.8227 331.087 48.0115 328.464L137.143 376.784L133.821 326.412L49.6896 288.249C44.6732 283.478 37.9793 280.611 30.8763 280.193C23.7734 279.775 16.7549 281.834 11.1507 285.98C5.54663 290.126 1.74627 296.072 0.469799 302.689C-0.806671 309.307 0.529436 316.138 4.22494 321.887Z" fill="#FFBF9D"/>
<path d="M262.269 515.455C235.829 550.433 236.775 608.953 244.152 673H369.158L374.593 661.013L381.839 673H499.598C499.598 673 490.54 510.318 474.235 505.181C457.93 500.043 262.269 515.455 262.269 515.455Z" fill="#2F2E41"/>
<path d="M369.158 150.007C404.177 150.007 432.566 123.173 432.566 90.0719C432.566 56.9705 404.177 30.1365 369.158 30.1365C334.138 30.1365 305.749 56.9705 305.749 90.0719C305.749 123.173 334.138 150.007 369.158 150.007Z" fill="#FFBF9D"/>
<path d="M414.987 165.558L427.387 188.022L513.153 224.161L490.609 430.383L481.12 451.738L486.247 470.283L473.887 483.97C486.293 494.581 487.869 505.689 481.12 517.178L441.625 525.73C441.625 525.73 222.021 544.188 240.528 512.03C260.75 476.894 265.9 373.126 221.258 317.674C183.358 270.597 212.455 209.51 212.455 209.51L302.355 184.115L335.421 165.558L414.987 165.558Z" fill="#3F3D56"/>
<path d="M397.308 2.27589C397.606 1.67997 398.086 1.18184 398.686 0.845469C399.285 0.509097 399.978 0.349837 400.674 0.388152C371.644 -1.2532 341.067 1.94495 316.781 17.066C310.897 20.7294 305.35 25.0989 298.947 27.7563C298.645 27.8847 298.383 28.0847 298.187 28.337C297.99 28.5893 297.867 28.8853 297.827 29.1962C297.788 29.5071 297.834 29.8224 297.961 30.1114C298.089 30.4005 298.293 30.6534 298.555 30.8457L299.258 31.367C299.535 31.5726 299.748 31.8463 299.872 32.1581C299.997 32.47 300.028 32.8081 299.963 33.1357C299.899 33.4633 299.74 33.7679 299.505 34.0163C299.27 34.2647 298.967 34.4474 298.63 34.5446C298.279 34.6459 297.965 34.8401 297.726 35.1042C297.488 35.3684 297.334 35.6915 297.283 36.0356C297.232 36.3796 297.286 36.7303 297.439 37.0462C297.592 37.3621 297.837 37.6302 298.146 37.8187L303.535 41.111C303.806 41.2739 304.03 41.4986 304.186 41.7645C304.341 42.0305 304.424 42.3291 304.426 42.633C304.427 42.9368 304.348 43.2363 304.196 43.5038C304.043 43.7713 303.822 43.9983 303.553 44.164C303.096 44.4305 302.617 44.6602 302.119 44.8508C301.81 44.9607 301.536 45.144 301.323 45.3831C301.111 45.6222 300.967 45.9091 300.905 46.2161C300.844 46.523 300.868 46.8398 300.973 47.1357C301.079 47.4316 301.264 47.6967 301.51 47.9056C303.843 49.8693 305.633 52.3428 306.724 55.1105C308.52 59.525 308.843 64.3329 309.146 69.0539C311.003 62.242 318.868 58.2321 326.297 57.8247C333.727 57.4172 340.972 59.7343 348.203 61.3999C363.951 65.0172 380.306 65.6119 396.302 63.1489C390.87 73.4521 395.452 85.7417 400.063 96.3964L414.987 90.3499C435.484 79.4136 421.206 125.676 413.544 132.027C429.19 137.154 470.141 80.247 456.967 58.6608C450.114 47.432 454.979 32.9495 441.506 22.2998C434.903 15.7292 421.719 18.6496 414.987 13.1887C412.338 11.0394 416.376 5.28913 412.735 4.03596C411.525 3.61973 397.508 1.85639 397.308 2.27589Z" fill="#2F2E41"/>
<path d="M289.903 189.917C278.268 238.743 248.425 352.747 218.149 376.589C216.229 378.302 213.927 379.587 211.412 380.349C104.99 404.855 70.8899 342.345 70.8899 342.345C70.8899 342.345 99.4097 329.208 100.133 303.53L157.648 320.398L207.785 213.749L215.163 207.244L215.204 207.205L289.903 189.917Z" fill="#3F3D56"/>
<path d="M516.812 640.805C519.86 638.036 522.228 634.669 523.749 630.942C525.271 627.214 525.91 623.217 525.621 619.231C525.331 615.244 524.12 611.367 522.074 607.871C520.028 604.375 517.195 601.345 513.776 598.996L543.61 506.058L492.421 520.412L471.938 606.467C468.143 612.158 466.688 618.967 467.85 625.603C469.011 632.24 472.708 638.244 478.239 642.476C483.771 646.709 490.752 648.877 497.862 648.569C504.971 648.261 511.714 645.498 516.812 640.805V640.805Z" fill="#FFBF9D"/>
<path d="M489.507 218.962L513.153 224.161C513.153 224.161 610.889 403.905 587.337 438.154C563.786 472.403 534.933 585.792 534.933 585.792C534.933 585.792 492.258 577.773 475.953 557.224L505.812 422.742L475.013 309.721L489.507 218.962Z" fill="#3F3D56"/>
<path d="M40.8985 485.877L41.7476 196.387C41.7718 190.528 44.2538 184.917 48.6492 180.785C53.0446 176.653 58.9943 174.339 65.1931 174.348L296.492 174.954C302.691 174.977 308.627 177.323 312.998 181.478C317.369 185.633 319.818 191.256 319.808 197.116L318.958 486.606C318.934 492.465 316.452 498.076 312.057 502.207C307.662 506.339 301.712 508.654 295.513 508.644L64.2144 508.038C58.0156 508.015 52.0795 505.669 47.7085 501.515C43.3374 497.36 40.8883 491.736 40.8985 485.877V485.877Z" fill="#E6E6E6"/>
<path d="M58.5245 398.75L59.0704 212.64C59.0929 207.153 61.4174 201.898 65.5339 198.028C69.6503 194.159 75.2225 191.991 81.0279 192L279.81 192.521C285.615 192.542 291.175 194.739 295.269 198.63C299.362 202.521 301.656 207.788 301.647 213.276L300.891 470.882C300.868 476.37 298.544 481.625 294.427 485.494C290.31 489.363 284.738 491.531 278.933 491.522L155.791 491.2C129.932 491.104 105.169 481.317 86.9339 463.986C68.6991 446.654 58.4822 423.193 58.5245 398.75Z" fill="white"/>
<path d="M165.956 106.954C175.658 106.954 183.522 99.5202 183.522 90.3499C183.522 81.1796 175.658 73.7456 165.956 73.7456C156.254 73.7456 148.389 81.1796 148.389 90.3499C148.389 99.5202 156.254 106.954 165.956 106.954Z" fill="#F2F2F2"/>
<path d="M101.89 584.572C111.591 584.572 119.456 577.138 119.456 567.968C119.456 558.798 111.591 551.364 101.89 551.364C92.1879 551.364 84.3231 558.798 84.3231 567.968C84.3231 577.138 92.1879 584.572 101.89 584.572Z" fill="#F2F2F2"/>
<path d="M505.92 171.418C515.621 171.418 523.486 163.984 523.486 154.814C523.486 145.643 515.621 138.209 505.92 138.209C496.218 138.209 488.353 145.643 488.353 154.814C488.353 163.984 496.218 171.418 505.92 171.418Z" fill="#F2F2F2"/>
<g clip-path="url(#clip1_97_6)">
<path d="M148.742 255.611C148.742 253.624 146.275 251.74 142.491 250.572C143.365 246.684 142.977 243.589 141.267 242.597C140.852 242.363 140.383 242.246 139.909 242.256V243.619C140.187 243.619 140.412 243.675 140.6 243.779C141.424 244.256 141.782 246.071 141.503 248.408C141.437 248.983 141.327 249.587 141.194 250.205C139.927 249.897 138.641 249.674 137.345 249.539C136.572 248.464 135.73 247.443 134.823 246.481C136.799 244.629 138.654 243.614 139.916 243.614V242.25C138.248 242.25 136.066 243.449 133.859 245.527C131.653 243.463 129.469 242.275 127.802 242.275V243.637C129.058 243.637 130.919 244.647 132.896 246.487C132.047 247.387 131.198 248.407 130.391 249.539C129.092 249.673 127.804 249.898 126.536 250.211C126.402 249.626 126.296 249.034 126.22 248.439C125.935 246.101 126.287 244.286 127.106 243.804C127.287 243.694 127.524 243.644 127.802 243.644V242.281C127.294 242.281 126.832 242.391 126.433 242.622C124.729 243.614 124.347 246.701 125.226 250.579C121.455 251.754 119 253.63 119 255.611C119 257.599 121.467 259.482 125.251 260.649C124.377 264.539 124.765 267.634 126.475 268.624C126.869 268.856 127.33 268.966 127.838 268.966C129.506 268.966 131.689 267.767 133.896 265.689C136.102 267.755 138.284 268.941 139.952 268.941C140.43 268.951 140.903 268.833 141.321 268.599C143.025 267.609 143.407 264.521 142.528 260.644C146.287 259.476 148.742 257.593 148.742 255.611ZM140.848 251.532C140.612 252.35 140.339 253.156 140.03 253.947C139.523 252.953 138.967 251.986 138.363 251.049C139.224 251.177 140.055 251.336 140.849 251.532H140.848ZM138.072 258.045C137.618 258.844 137.131 259.624 136.611 260.381C134.792 260.543 132.963 260.545 131.143 260.388C130.1 258.884 129.187 257.292 128.416 255.63C129.186 253.964 130.095 252.367 131.132 250.855C132.951 250.693 134.78 250.69 136.599 250.847C137.102 251.575 137.594 252.352 138.066 253.172C138.527 253.972 138.946 254.785 139.327 255.605C138.941 256.435 138.523 257.249 138.072 258.045V258.045ZM140.03 257.25C140.357 258.069 140.637 258.889 140.866 259.684C140.073 259.88 139.236 260.045 138.369 260.173C138.971 259.227 139.525 258.251 140.03 257.25V257.25ZM133.883 263.775C133.319 263.187 132.756 262.534 132.198 261.817C132.743 261.842 133.301 261.861 133.865 261.861C134.435 261.861 134.999 261.849 135.55 261.817C135.005 262.534 134.441 263.187 133.883 263.775ZM129.372 260.173C128.537 260.05 127.707 259.889 126.887 259.69C127.111 258.901 127.39 258.088 127.704 257.275C127.954 257.763 128.215 258.253 128.5 258.743C128.785 259.231 129.075 259.709 129.372 260.173ZM133.852 247.447C134.416 248.035 134.98 248.689 135.538 249.405C134.992 249.38 134.435 249.361 133.871 249.361C133.301 249.361 132.737 249.374 132.186 249.405C132.731 248.689 133.295 248.035 133.852 247.447ZM129.366 251.05C128.765 251.994 128.211 252.967 127.706 253.966C127.387 253.169 127.108 252.357 126.869 251.532C127.662 251.342 128.5 251.177 129.366 251.05ZM123.88 258.705C121.734 257.782 120.346 256.571 120.346 255.611C120.346 254.651 121.734 253.434 123.88 252.517C124.401 252.291 124.971 252.089 125.559 251.9C125.905 253.098 126.36 254.345 126.922 255.624C126.391 256.826 125.942 258.064 125.578 259.329C125.002 259.149 124.436 258.941 123.88 258.705V258.705ZM127.142 267.442C126.318 266.967 125.96 265.15 126.238 262.815C126.305 262.24 126.414 261.634 126.548 261.016C127.735 261.31 129.033 261.536 130.397 261.684C131.17 262.758 132.012 263.78 132.919 264.741C130.943 266.594 129.087 267.609 127.826 267.609C127.588 267.611 127.353 267.555 127.142 267.444V267.442ZM141.522 262.784C141.807 265.12 141.455 266.936 140.636 267.419C140.455 267.529 140.218 267.577 139.94 267.577C138.684 267.577 136.823 266.569 134.846 264.728C135.75 263.77 136.586 262.751 137.351 261.677C138.65 261.543 139.938 261.319 141.206 261.005C141.346 261.622 141.454 262.215 141.522 262.784V262.784ZM143.856 258.705C143.335 258.931 142.765 259.134 142.176 259.322C141.806 258.052 141.35 256.808 140.813 255.599C141.371 254.327 141.818 253.086 142.158 251.894C142.735 252.074 143.304 252.282 143.862 252.517C146.008 253.44 147.396 254.651 147.396 255.611C147.39 256.571 146.002 257.789 143.856 258.705V258.705Z" fill="#12C3F7"/>
<path d="M133.865 258.406C134.6 258.406 135.304 258.112 135.824 257.588C136.344 257.063 136.636 256.352 136.636 255.611C136.636 254.87 136.344 254.159 135.824 253.635C135.304 253.111 134.6 252.816 133.865 252.816C133.13 252.816 132.425 253.111 131.905 253.635C131.386 254.159 131.094 254.87 131.094 255.611C131.094 256.352 131.386 257.063 131.905 257.588C132.425 258.112 133.13 258.406 133.865 258.406V258.406Z" fill="#12C3F7"/>
</g>
<path d="M159 324C159 321.348 159.906 318.804 161.517 316.929C163.129 315.054 165.315 314 167.595 314H191.66C193.94 314 196.126 315.054 197.738 316.929C199.349 318.804 200.255 321.348 200.255 324V352C200.255 354.652 199.349 357.196 197.738 359.071C196.126 360.946 193.94 362 191.66 362H167.595C165.315 362 163.129 360.946 161.517 359.071C159.906 357.196 159 354.652 159 352V324ZM177.908 330C177.453 330 177.015 330.211 176.693 330.586C176.371 330.961 176.19 331.47 176.19 332V348C176.19 348.53 176.008 349.039 175.686 349.414C175.364 349.789 174.926 350 174.471 350H171.033C170.577 350 170.14 350.211 169.817 350.586C169.495 350.961 169.314 351.47 169.314 352C169.314 352.53 169.495 353.039 169.817 353.414C170.14 353.789 170.577 354 171.033 354H174.471C175.838 354 177.15 353.368 178.117 352.243C179.084 351.117 179.627 349.591 179.627 348V332C179.627 331.47 179.446 330.961 179.124 330.586C178.802 330.211 178.364 330 177.908 330ZM181.346 336V338C181.346 339.591 181.89 341.117 182.857 342.243C183.824 343.368 185.136 344 186.503 344H188.222C188.678 344 189.115 344.211 189.438 344.586C189.76 344.961 189.941 345.47 189.941 346V348C189.941 348.53 189.76 349.039 189.438 349.414C189.115 349.789 188.678 350 188.222 350H183.065C182.609 350 182.172 350.211 181.85 350.586C181.527 350.961 181.346 351.47 181.346 352C181.346 352.53 181.527 353.039 181.85 353.414C182.172 353.789 182.609 354 183.065 354H188.222C189.59 354 190.902 353.368 191.869 352.243C192.836 351.117 193.379 349.591 193.379 348V346C193.379 344.409 192.836 342.883 191.869 341.757C190.902 340.632 189.59 340 188.222 340H186.503C186.047 340 185.61 339.789 185.288 339.414C184.965 339.039 184.784 338.53 184.784 338V336C184.784 335.47 184.965 334.961 185.288 334.586C185.61 334.211 186.047 334 186.503 334H191.66C192.116 334 192.553 333.789 192.876 333.414C193.198 333.039 193.379 332.53 193.379 332C193.379 331.47 193.198 330.961 192.876 330.586C192.553 330.211 192.116 330 191.66 330H186.503C185.136 330 183.824 330.632 182.857 331.757C181.89 332.883 181.346 334.409 181.346 336V336Z" fill="#E0D815"/>
<path d="M174.902 257.101L172.655 236.625H197.345L195.095 257.098L184.985 259.375L174.902 257.101Z" fill="#E44F26"/>
<path d="M185 257.635L193.17 255.794L195.092 238.3H185V257.635Z" fill="#F1662A"/>
<path d="M185 245.893H180.91L180.628 243.322H185V240.81H177.25L177.324 241.485L178.083 248.405H185V245.893V245.893ZM185 252.415L184.986 252.418L181.544 251.664L181.324 249.661H178.221L178.654 253.603L184.986 255.031L185 255.028V252.415Z" fill="#EBEBEB"/>
<path d="M184.989 245.893V248.405H188.795L188.437 251.662L184.989 252.418V255.031L191.326 253.603L191.372 253.179L192.098 246.568L192.174 245.893H184.989V245.893ZM184.989 240.81V243.322H192.455L192.517 242.758L192.658 241.485L192.732 240.81H184.989V240.81Z" fill="white"/>
<path d="M242.902 400.101L240.656 379.625H265.344L263.095 400.098L252.985 402.375L242.902 400.101Z" fill="#1572B6"/>
<path d="M253 400.635L261.17 398.794L263.092 381.3H253V400.635Z" fill="#33A9DC"/>
<path d="M253 388.718H257.09L257.372 386.146H253V383.635H260.75L260.676 384.308L259.917 391.229H253V388.718V388.718Z" fill="white"/>
<path d="M253.019 395.24L253.005 395.243L249.563 394.487L249.343 392.484H246.24L246.673 396.427L253.004 397.856L253.019 397.853V395.24V395.24Z" fill="#EBEBEB"/>
<path d="M256.827 391.123L256.455 394.486L253.008 395.241V397.854L259.344 396.428L259.391 396.003L259.928 391.123H256.827V391.123Z" fill="white"/>
<path d="M253.011 383.635V386.146H245.545L245.483 385.582L245.342 384.308L245.268 383.635H253.011V383.635ZM253 388.718V391.229H249.601L249.539 390.665L249.399 389.391L249.325 388.718H253V388.718Z" fill="#EBEBEB"/>
<g clip-path="url(#clip2_97_6)">
<path d="M102.038 356.317C101.938 356.37 101.946 356.387 102.042 356.338C102.072 356.326 102.099 356.308 102.123 356.286C102.123 356.268 102.123 356.268 102.038 356.317V356.317ZM102.241 356.207C102.193 356.247 102.193 356.247 102.25 356.22C102.271 356.21 102.291 356.197 102.307 356.181C102.307 356.158 102.294 356.163 102.241 356.207V356.207ZM102.372 356.128C102.324 356.167 102.324 356.167 102.382 356.141C102.403 356.131 102.422 356.117 102.439 356.101C102.439 356.079 102.426 356.084 102.372 356.128ZM102.506 356.049C102.458 356.089 102.458 356.089 102.513 356.062C102.544 356.045 102.571 356.027 102.571 356.022C102.571 356.001 102.557 356.005 102.506 356.049ZM102.685 355.93C102.593 355.992 102.561 356.031 102.646 355.988C102.702 355.953 102.798 355.877 102.782 355.877C102.745 355.89 102.715 355.913 102.685 355.93H102.685ZM94.6166 331.009C94.555 331.013 94.3702 331.03 94.2082 331.044C90.3708 331.391 86.7807 333.457 84.5051 336.639C83.2475 338.384 82.4301 340.407 82.1223 342.536C82.0135 343.278 82 343.497 82 344.504C82 345.51 82.0135 345.726 82.1223 346.468C82.8572 351.54 86.4651 355.798 91.3555 357.375C92.2355 357.656 93.1577 357.851 94.2082 357.969C94.6166 358.013 96.3826 358.013 96.7909 357.969C98.6067 357.767 100.14 357.319 101.657 356.545C101.89 356.427 101.934 356.396 101.902 356.37C101.162 355.391 100.429 354.408 99.701 353.421L97.5436 350.507L94.841 346.504C93.9421 345.163 93.0339 343.829 92.1166 342.501C92.1073 342.501 92.0955 344.28 92.0904 346.451C92.0811 350.252 92.0811 350.406 92.033 350.494C91.9869 350.6 91.9043 350.686 91.8002 350.736C91.7166 350.776 91.6415 350.784 91.2424 350.784H90.786L90.667 350.71C90.5925 350.662 90.5319 350.595 90.4915 350.517L90.4341 350.398L90.4383 345.107L90.4476 339.815L90.5312 339.71C90.5845 339.645 90.6502 339.591 90.7244 339.552C90.8349 339.499 90.8788 339.491 91.3353 339.491C91.871 339.491 91.9596 339.512 92.1005 339.666C93.1953 341.294 94.2807 342.929 95.3566 344.57C97.1107 347.229 99.5053 350.858 100.682 352.639L102.823 355.878L102.928 355.808C103.957 355.124 104.889 354.305 105.7 353.374C107.401 351.427 108.504 349.032 108.879 346.474C108.987 345.732 109.001 345.512 109.001 344.506C109.001 343.499 108.987 343.284 108.879 342.542C108.144 337.47 104.536 333.212 99.6453 331.634C98.7314 331.344 97.7907 331.147 96.8373 331.045C96.5817 331.019 94.8368 330.988 94.6174 331.011L94.6166 331.009ZM100.141 339.174C100.203 339.205 100.259 339.248 100.305 339.301C100.351 339.353 100.386 339.415 100.408 339.481C100.431 339.552 100.435 341.019 100.431 344.324L100.422 349.07L99.5871 347.787L98.7476 346.504V343.059C98.7476 340.825 98.7569 339.573 98.7687 339.512C98.81 339.37 98.9047 339.251 99.0328 339.178C99.1374 339.125 99.1779 339.121 99.5956 339.121C99.9862 339.121 100.052 339.125 100.14 339.174H100.141Z" fill="black"/>
</g>
<path d="M264 356.187C263.669 356.188 263.345 356.097 263.058 355.926L260.062 354.089C259.615 353.83 259.833 353.739 259.981 353.685C260.457 353.533 260.912 353.32 261.336 353.051C261.372 353.034 261.411 353.026 261.45 353.029C261.489 353.033 261.527 353.046 261.56 353.068L263.862 354.485C263.905 354.508 263.952 354.52 264.001 354.52C264.049 354.52 264.097 354.508 264.14 354.485L273.117 349.118C273.159 349.092 273.194 349.055 273.218 349.011C273.242 348.966 273.255 348.917 273.255 348.866V338.13C273.255 338.079 273.242 338.028 273.218 337.983C273.193 337.938 273.158 337.901 273.116 337.874L264.138 332.512C264.096 332.487 264.048 332.474 264 332.474C263.951 332.474 263.903 332.487 263.861 332.512L254.889 337.876C254.846 337.902 254.81 337.939 254.785 337.984C254.761 338.028 254.747 338.079 254.747 338.13V348.861C254.747 348.912 254.76 348.962 254.785 349.005C254.81 349.049 254.845 349.085 254.888 349.11L257.35 350.581C258.684 351.272 259.502 350.458 259.502 349.641V339.046C259.502 338.974 259.529 338.904 259.578 338.853C259.628 338.802 259.694 338.774 259.764 338.774H260.902C260.971 338.774 261.038 338.802 261.087 338.853C261.136 338.904 261.164 338.974 261.164 339.046V349.642C261.164 351.486 260.195 352.542 258.506 352.542C257.777 352.555 257.06 352.353 256.438 351.96L254.078 350.558C253.792 350.385 253.554 350.137 253.389 349.84C253.224 349.542 253.137 349.205 253.137 348.861V338.13C253.136 337.786 253.223 337.448 253.388 337.15C253.553 336.852 253.791 336.604 254.078 336.431L263.057 331.063C263.346 330.899 263.67 330.813 264 330.813C264.33 330.813 264.654 330.899 264.943 331.063L273.921 336.431C274.207 336.604 274.445 336.851 274.61 337.148C274.776 337.446 274.863 337.783 274.863 338.126V348.861C274.863 349.205 274.775 349.542 274.61 349.839C274.445 350.137 274.207 350.385 273.921 350.558L264.943 355.926C264.656 356.098 264.331 356.188 264 356.187V356.187Z" fill="#83CD29"/>
<path d="M262.297 345.27C262.297 345.198 262.325 345.129 262.374 345.078C262.423 345.027 262.49 344.998 262.56 344.998H263.721C263.783 344.998 263.843 345.021 263.89 345.063C263.937 345.104 263.969 345.162 263.979 345.225C264.154 346.45 264.679 347.067 267.053 347.067C268.944 347.067 269.75 346.624 269.75 345.584C269.75 344.985 269.521 344.54 266.582 344.242C264.125 343.99 262.606 343.426 262.606 341.393C262.606 339.517 264.133 338.398 266.692 338.398C269.568 338.398 270.992 339.432 271.172 341.65C271.175 341.687 271.171 341.725 271.159 341.76C271.147 341.795 271.129 341.827 271.104 341.854C271.08 341.882 271.051 341.904 271.018 341.919C270.985 341.934 270.95 341.942 270.914 341.943H269.745C269.687 341.942 269.63 341.921 269.584 341.883C269.539 341.845 269.507 341.792 269.493 341.733C269.214 340.445 268.531 340.033 266.693 340.033C264.628 340.033 264.388 340.778 264.388 341.337C264.388 342.013 264.672 342.21 267.46 342.592C270.219 342.97 271.529 343.504 271.529 345.513C271.529 347.539 269.898 348.699 267.054 348.699C263.121 348.704 262.297 346.837 262.297 345.27V345.27Z" fill="#83CD29"/>
<g clip-path="url(#clip3_97_6)">
<path d="M227.509 419.841L216.157 408.491C216.002 408.335 215.817 408.212 215.614 408.128C215.411 408.044 215.193 408 214.973 408C214.753 408 214.536 408.044 214.332 408.128C214.129 408.212 213.945 408.335 213.789 408.491L211.433 410.847L214.423 413.837C214.776 413.717 215.155 413.698 215.518 413.783C215.881 413.868 216.212 414.053 216.475 414.317C216.738 414.581 216.921 414.914 217.003 415.278C217.086 415.641 217.065 416.02 216.942 416.372L219.823 419.255C220.249 419.105 220.714 419.104 221.14 419.253C221.567 419.403 221.93 419.693 222.17 420.076C222.409 420.459 222.511 420.912 222.459 421.361C222.407 421.81 222.203 422.228 221.882 422.545C221.557 422.873 221.128 423.077 220.668 423.123C220.209 423.169 219.748 423.055 219.364 422.799C218.98 422.543 218.697 422.162 218.563 421.72C218.428 421.278 218.452 420.804 218.629 420.378L215.942 417.69V424.764C216.351 424.966 216.677 425.302 216.868 425.715C217.059 426.129 217.102 426.596 216.99 427.037C216.878 427.479 216.619 427.869 216.254 428.143C215.89 428.416 215.443 428.556 214.988 428.54C214.532 428.524 214.096 428.352 213.752 428.053C213.408 427.754 213.177 427.347 213.097 426.898C213.017 426.45 213.094 425.987 213.313 425.588C213.533 425.189 213.883 424.877 214.304 424.705V417.566C214.061 417.467 213.84 417.32 213.654 417.134C213.468 416.949 213.32 416.728 213.219 416.485C213.119 416.242 213.067 415.982 213.068 415.719C213.068 415.456 213.121 415.196 213.222 414.953L210.276 412.006L202.492 419.789C202.337 419.945 202.213 420.129 202.129 420.332C202.045 420.536 202.002 420.753 202.002 420.973C202.002 421.193 202.045 421.411 202.129 421.614C202.213 421.817 202.337 422.002 202.492 422.157L213.845 433.509C214 433.665 214.185 433.788 214.388 433.872C214.591 433.956 214.809 434 215.028 434C215.248 434 215.466 433.956 215.669 433.872C215.872 433.788 216.057 433.665 216.212 433.509L227.511 422.211C227.825 421.897 228.001 421.471 228.001 421.027C228.001 420.583 227.825 420.157 227.511 419.843" fill="#F1662A"/>
</g>
<path d="M103.62 308L102.869 307.751C102.869 307.751 102.969 303.951 101.594 303.684C100.694 302.636 101.727 258.943 105.017 303.535C104.393 303.852 103.915 304.397 103.684 305.058C103.56 306.034 103.539 307.02 103.62 308V308Z" fill="url(#paint0_linear_97_6)"/>
<path d="M104.026 304.329C106.026 302.824 107.557 300.782 108.442 298.441C109.327 296.1 109.53 293.556 109.026 291.104C107.556 284.619 104.075 282.487 103.7 281.673C103.376 281.166 103.1 280.631 102.875 280.073L103.152 298.142C103.152 298.142 102.578 303.664 104.026 304.329Z" fill="url(#paint1_linear_97_6)"/>
<path d="M102.487 304.569C102.487 304.569 96.366 300.4 96.72 293.025C96.753 290.802 97.2628 288.611 98.2149 286.602C99.167 284.592 100.539 282.811 102.239 281.377C102.438 281.208 102.595 280.997 102.701 280.758C102.806 280.52 102.855 280.26 102.846 280C103.227 280.82 103.165 292.243 103.205 293.579C103.36 298.776 102.916 303.588 102.487 304.569V304.569Z" fill="url(#paint2_linear_97_6)"/>
<g clip-path="url(#clip4_97_6)">
<path d="M100 392V391.983C100 390.22 100.385 388.546 101.076 387.043L101.046 387.117L106.773 402.797C104.774 401.831 103.082 400.33 101.886 398.459L101.857 398.411C100.639 396.531 99.9934 394.338 100 392.098V391.995V392ZM120.099 391.391C120.099 391.603 120.084 391.812 120.057 392.016L120.06 391.992C120.02 392.269 119.962 392.544 119.889 392.814L119.9 392.765C119.822 393.077 119.762 393.306 119.721 393.451C119.68 393.596 119.59 393.903 119.451 394.372C119.311 394.84 119.22 395.142 119.178 395.277L117.992 399.271L113.654 386.382C114.134 386.351 114.592 386.309 115.028 386.257C115.116 386.253 115.2 386.224 115.272 386.173C115.344 386.123 115.399 386.052 115.432 385.971L115.433 385.968C115.469 385.891 115.485 385.806 115.478 385.722C115.471 385.637 115.441 385.556 115.393 385.486L115.394 385.488C115.347 385.414 115.28 385.355 115.201 385.318C115.122 385.281 115.034 385.267 114.947 385.277H114.949L111.749 385.437C110.969 385.426 109.918 385.373 108.597 385.277C108.484 385.264 108.37 385.293 108.276 385.358L108.278 385.357C108.195 385.413 108.133 385.494 108.1 385.588L108.099 385.591C108.067 385.685 108.059 385.785 108.076 385.883V385.879C108.092 385.978 108.142 386.069 108.216 386.136C108.3 386.211 108.407 386.256 108.519 386.261H108.52L109.768 386.386L111.641 391.506L109.019 399.371L104.65 386.38C105.13 386.349 105.588 386.307 106.024 386.255C106.112 386.251 106.196 386.222 106.268 386.171C106.34 386.121 106.395 386.05 106.428 385.969L106.429 385.966C106.465 385.889 106.481 385.804 106.474 385.72C106.467 385.635 106.437 385.554 106.389 385.484L106.39 385.486C106.343 385.412 106.276 385.353 106.197 385.316C106.118 385.279 106.03 385.265 105.943 385.275H105.945L102.745 385.435C102.672 385.435 102.552 385.432 102.386 385.427C102.22 385.422 102.085 385.419 101.98 385.419C103.049 383.788 104.498 382.441 106.202 381.494L106.263 381.463C108.021 380.5 109.994 379.998 111.998 380.004C113.573 380.004 115.078 380.308 116.456 380.859L116.375 380.83C117.751 381.373 119.015 382.164 120.105 383.163L120.096 383.155H119.9C119.343 383.155 118.844 383.399 118.502 383.785L118.5 383.787C118.146 384.167 117.929 384.679 117.929 385.241V385.271V385.269C117.929 385.401 117.94 385.531 117.962 385.657L117.96 385.643C117.981 385.768 118.001 385.879 118.022 385.978C118.055 386.115 118.098 386.235 118.152 386.348L118.147 386.337C118.21 386.477 118.257 386.586 118.288 386.665C118.349 386.802 118.412 386.917 118.482 387.027L118.475 387.016C118.569 387.172 118.634 387.281 118.67 387.344C118.706 387.407 118.781 387.531 118.896 387.718L119.114 388.077C119.709 389.017 120.072 390.156 120.096 391.378V391.385L120.099 391.391ZM112.203 393.046L115.901 403.142C115.913 403.208 115.941 403.267 115.981 403.315V403.314C114.705 403.771 113.359 404.003 112.003 404H111.975C110.808 404.001 109.648 403.826 108.534 403.479L108.616 403.501L112.203 393.046ZM122.518 386.246C123.496 387.999 124.007 389.974 124 391.982V392.007V392.006V392.093C124 394.28 123.397 396.326 122.347 398.074L122.376 398.021C121.335 399.802 119.856 401.288 118.079 402.336L118.023 402.367L121.69 391.781C122.2 390.512 122.531 389.043 122.609 387.507L122.61 387.474V387.439C122.61 387.023 122.577 386.608 122.51 386.197L122.516 386.241L122.518 386.246Z" fill="black"/>
</g>
<g clip-path="url(#clip5_97_6)">
<path d="M151.25 438C154.148 438 156.5 436.059 156.5 433.667V429.333H151.25C148.352 429.333 146 431.275 146 433.667C146 436.059 148.352 438 151.25 438Z" fill="#0ACF83"/>
<path d="M146 425C146 422.608 148.352 420.667 151.25 420.667H156.5V429.333H151.25C148.352 429.333 146 427.392 146 425Z" fill="#A259FF"/>
<path d="M146 416.333C146 413.941 148.352 412 151.25 412H156.5V420.667H151.25C148.352 420.667 146 418.725 146 416.333Z" fill="#F24E1E"/>
<path d="M156.5 412H161.75C164.648 412 167 413.941 167 416.333C167 418.725 164.648 420.667 161.75 420.667H156.5V412Z" fill="#FF7262"/>
<path d="M167 425C167 427.392 164.648 429.333 161.75 429.333C158.852 429.333 156.5 427.392 156.5 425C156.5 422.608 158.852 420.667 161.75 420.667C164.648 420.667 167 422.608 167 425Z" fill="#1ABCFE"/>
</g>
<path d="M242.372 264.965C241.468 264.972 240.682 265.262 240.023 265.692C239.782 265.054 239.54 264.486 239.498 264.069C239.45 263.583 239.393 263.286 239.45 262.705C239.507 262.124 239.763 261.297 239.758 261.234C239.753 261.17 239.701 260.874 239.18 260.867C238.659 260.861 238.209 261 238.157 261.183C238.105 261.366 238.006 261.783 237.939 262.212C237.849 262.844 236.898 265.098 236.353 266.279C236.178 265.818 236.026 265.414 235.993 265.092C235.946 264.606 235.889 264.309 235.946 263.728C236.003 263.147 236.258 262.32 236.254 262.256C236.249 262.193 236.197 261.897 235.676 261.89C235.155 261.884 234.705 262.023 234.653 262.206C234.601 262.389 234.544 262.818 234.435 263.235C234.326 263.652 233.061 267.416 232.73 268.388C232.596 268.781 232.455 269.171 232.309 269.556C232.309 269.556 232.304 269.575 232.29 269.607C232.243 269.727 232.196 269.847 232.148 269.967V269.973C232.076 270.143 232.001 270.301 231.963 270.301C231.934 270.301 231.882 269.847 231.972 269.228C232.162 267.921 232.612 265.887 232.607 265.818C232.607 265.78 232.692 265.426 232.313 265.243C231.944 265.06 231.811 265.363 231.778 265.363C231.745 265.363 231.721 265.471 231.721 265.471C231.721 265.471 232.133 263.185 230.935 263.185C230.187 263.185 229.154 264.277 228.643 265.262C228.061 265.684 227.481 266.107 226.9 266.531C226.621 266.74 226.332 266.948 226.062 267.144C226.043 267.119 226.024 267.087 226.005 267.062C224.556 264.997 221.875 263.538 221.989 260.766C222.032 259.756 222.292 257.104 227.137 253.884C231.124 251.263 234.298 251.989 234.847 253.599C235.633 255.898 233.147 260.166 229.027 260.785C227.454 261.019 226.63 260.211 226.422 259.908C226.204 259.592 226.171 259.573 226.09 259.636C225.958 259.731 226.043 260.015 226.09 260.179C226.213 260.608 226.72 261.366 227.577 261.739C228.335 262.067 230.177 262.25 232.408 261.101C234.904 259.813 236.855 256.232 236.282 253.233C235.709 250.189 231.92 249.185 228.335 250.884C226.204 251.895 223.893 253.486 222.231 255.557C220.256 258.019 219.943 260.16 220.071 261.057C220.53 264.239 223.822 266.31 225.138 267.845C225.072 267.895 225.01 267.94 224.958 267.978C224.3 268.413 221.79 270.162 221.165 272.012C220.455 274.109 221.279 275.612 221.823 275.814C223.514 276.439 225.252 275.315 226.185 273.458C227.118 271.602 227.004 269.19 226.573 268.085C226.569 268.072 226.564 268.059 226.554 268.047C226.725 267.914 226.9 267.775 227.071 267.643C227.384 267.396 227.701 267.158 228.023 266.929C227.861 267.516 227.743 268.217 227.686 269.228C227.615 270.415 227.98 271.956 228.458 272.562C228.671 272.827 228.922 272.833 229.083 272.833C229.642 272.833 229.893 272.214 230.173 271.482C230.514 270.585 230.821 269.543 230.821 269.543C230.821 269.543 230.438 272.36 231.48 272.36C231.859 272.36 232.242 271.703 232.413 271.368V271.375C232.413 271.375 232.422 271.356 232.441 271.311C232.479 271.229 232.503 271.179 232.503 271.179V271.166C232.654 270.813 232.995 270.011 233.502 268.678C234.156 266.961 234.785 264.814 234.785 264.814C234.785 264.814 234.842 265.338 235.036 266.209C235.15 266.721 235.387 267.283 235.576 267.826C235.425 268.11 235.33 268.268 235.33 268.268L235.335 268.274C235.212 268.489 235.079 268.722 234.932 268.95C234.416 269.771 233.8 270.712 233.715 270.983C233.616 271.305 233.639 271.539 233.829 271.728C233.966 271.867 234.212 271.886 234.463 271.867C234.928 271.823 235.254 271.671 235.415 271.577C235.666 271.457 235.96 271.274 236.235 271.002C236.741 270.503 237.049 269.79 237.021 268.849C237.006 268.331 236.879 267.813 236.722 267.327C236.77 267.239 236.812 267.15 236.86 267.062C237.66 265.502 238.28 263.791 238.28 263.791C238.28 263.791 238.337 264.315 238.531 265.186C238.626 265.628 238.82 266.108 238.991 266.576C238.238 267.39 237.774 268.337 237.608 268.956C237.31 270.105 237.542 270.623 237.982 270.743C238.181 270.8 238.465 270.674 238.674 270.554C238.939 270.44 239.251 270.244 239.55 269.954C240.057 269.455 240.544 268.76 240.516 267.82C240.502 267.39 240.416 266.967 240.298 266.557C240.937 266.203 241.761 266.007 242.813 266.171C245.067 266.525 245.512 268.4 245.427 269.19C245.342 269.979 244.868 270.409 244.712 270.541C244.555 270.674 244.503 270.718 244.518 270.813C244.537 270.952 244.612 270.945 244.745 270.92C244.93 270.876 245.929 270.282 245.972 268.83C246.043 266.973 244.717 264.947 242.372 264.965V264.965ZM224.982 272.783C224.234 273.869 223.192 274.279 222.742 273.932C222.259 273.559 222.448 271.956 223.367 270.806C223.926 270.105 224.646 269.455 225.124 269.057C225.233 268.969 225.394 268.843 225.588 268.685C225.621 268.659 225.64 268.647 225.64 268.647L225.754 268.552C226.09 270.194 225.768 271.64 224.982 272.783V272.783ZM230.428 267.845C230.168 268.691 229.623 270.857 229.292 270.737C229.008 270.636 228.832 268.994 229.235 267.371C229.439 266.557 229.869 265.584 230.121 265.205C230.528 264.599 230.978 264.397 231.087 264.643C231.224 264.965 230.589 267.314 230.428 267.845V267.845ZM234.923 270.712C234.814 270.787 234.71 270.838 234.662 270.8C234.629 270.775 234.71 270.674 234.71 270.674C234.71 270.674 235.273 269.866 235.496 269.499C235.624 269.285 235.775 269.032 235.936 268.748V268.83C235.936 269.796 235.235 270.446 234.923 270.712H234.923ZM238.389 269.657C238.309 269.581 238.323 269.329 238.593 268.539C238.697 268.23 238.943 267.712 239.365 267.213C239.412 267.415 239.446 267.611 239.441 267.794C239.436 269.013 238.783 269.468 238.389 269.657Z" fill="#CD6799"/>
<path d="M248 305.648C248 307.499 249.501 309 251.352 309H270.647C272.499 309 274 307.499 274 305.648V286.353C274 284.501 272.499 283 270.648 283H251.353C249.501 283 248 284.501 248 286.352V305.647V305.648Z" fill="#563D7C"/>
<path d="M258.782 294.501V290.819H262.023C262.331 290.819 262.629 290.844 262.916 290.896C263.202 290.947 263.456 291.039 263.676 291.172C263.897 291.304 264.073 291.488 264.205 291.723C264.338 291.958 264.404 292.259 264.404 292.627C264.404 293.288 264.205 293.766 263.808 294.06C263.412 294.354 262.905 294.501 262.287 294.501H258.782V294.501ZM255.32 288.129V303.871H262.949C263.654 303.871 264.341 303.783 265.01 303.607C265.679 303.43 266.274 303.158 266.796 302.791C267.318 302.423 267.733 301.949 268.042 301.369C268.35 300.788 268.505 300.101 268.505 299.307C268.505 298.322 268.266 297.481 267.788 296.783C267.31 296.085 266.586 295.596 265.616 295.316C266.322 294.978 266.855 294.545 267.215 294.016C267.575 293.487 267.755 292.825 267.755 292.031C267.755 291.296 267.634 290.679 267.391 290.179C267.149 289.68 266.807 289.279 266.366 288.978C265.925 288.676 265.396 288.46 264.779 288.327C264.161 288.195 263.478 288.129 262.728 288.129H255.32V288.129ZM258.782 301.181V296.86H262.552C263.301 296.86 263.904 297.032 264.36 297.378C264.815 297.723 265.043 298.3 265.043 299.109C265.043 299.52 264.973 299.858 264.834 300.123C264.694 300.388 264.507 300.597 264.271 300.751C264.036 300.906 263.764 301.016 263.456 301.082C263.147 301.148 262.824 301.181 262.486 301.181H258.782V301.181Z" fill="white"/>
</g>
<defs>
<linearGradient id="paint0_linear_97_6" x1="98.5716" y1="294.252" x2="107.203" y2="297.181" gradientUnits="userSpaceOnUse">
<stop offset="0.231" stop-color="#999875"/>
<stop offset="0.563" stop-color="#9B9977"/>
<stop offset="0.683" stop-color="#A09F7E"/>
<stop offset="0.768" stop-color="#A9A889"/>
<stop offset="0.837" stop-color="#B7B69A"/>
<stop offset="0.896" stop-color="#C9C7B0"/>
<stop offset="0.948" stop-color="#DEDDCB"/>
<stop offset="0.994" stop-color="#F8F6EB"/>
<stop offset="1" stop-color="#FBF9EF"/>
</linearGradient>
<linearGradient id="paint1_linear_97_6" x1="101.737" y1="279.944" x2="105.553" y2="303.773" gradientUnits="userSpaceOnUse">
<stop stop-color="#48A547"/>
<stop offset="1" stop-color="#3F9143"/>
</linearGradient>
<linearGradient id="paint2_linear_97_6" x1="96.1935" y1="293.755" x2="106.434" y2="290.325" gradientUnits="userSpaceOnUse">
<stop stop-color="#41A247"/>
<stop offset="0.352" stop-color="#4BA74B"/>
<stop offset="0.956" stop-color="#67B554"/>
<stop offset="1" stop-color="#69B655"/>
</linearGradient>
<clipPath id="clip0_97_6">
<rect width="591" height="673" fill="white"/>
</clipPath>
<clipPath id="clip1_97_6">
<rect width="29.7419" height="30" fill="white" transform="translate(119 241)"/>
</clipPath>
<clipPath id="clip2_97_6">
<rect width="27" height="27" fill="white" transform="translate(82 331)"/>
</clipPath>
<clipPath id="clip3_97_6">
<rect width="26" height="26" fill="white" transform="translate(202 408)"/>
</clipPath>
<clipPath id="clip4_97_6">
<rect width="24" height="24" fill="white" transform="translate(100 380)"/>
</clipPath>
<clipPath id="clip5_97_6">
<rect width="21" height="26" fill="white" transform="translate(146 412)"/>
</clipPath>
</defs>
</svg>
